<svg xmlns="http://www.w3.org/2000/svg" viewBox="0 0 400 320" fill="none" stroke="currentColor" stroke-width="3" stroke-linejoin="round" stroke-linecap="round">
  <!-- Stein-Studio Griss · Kristall-Cluster Logo (Hommage an Visitenkarte) -->

  <!-- Bodenlinie (Sockel) -->
  <path d="M55 285 Q90 278 130 282 Q170 286 200 280 Q230 276 270 282 Q310 286 345 282" stroke-width="2.5"/>
  <path d="M70 290 Q120 285 180 287 Q240 289 290 286 Q320 284 340 288" stroke-width="1.5" opacity="0.6"/>

  <!-- ZENTRALER GROSSER KRISTALL (höchster) -->
  <path d="M195 285 L175 130 L195 60 L210 65 L228 130 L218 285 Z"/>
  <!-- Facetten-Linien innen -->
  <path d="M175 130 L228 130"/>
  <path d="M195 60 L218 285"/>
  <path d="M210 65 L195 285"/>
  <path d="M195 60 L210 65"/>
  <path d="M203 90 L207 285" stroke-width="1.5" opacity="0.7"/>
  <!-- kleine Glanz-/Bruchlinien -->
  <path d="M188 175 L195 195" stroke-width="1.5" opacity="0.6"/>
  <path d="M205 195 L212 220" stroke-width="1.5" opacity="0.6"/>

  <!-- LINKER hoher Kristall -->
  <path d="M115 290 L100 195 L120 130 L142 135 L155 200 L142 290 Z"/>
  <path d="M100 195 L155 200"/>
  <path d="M120 130 L142 290"/>
  <path d="M142 135 L115 290"/>
  <path d="M120 130 L142 135"/>
  <path d="M132 165 L130 290" stroke-width="1.5" opacity="0.7"/>

  <!-- LINKS-AUSSEN flacher Kristall (zeigt nach unten-links) -->
  <path d="M70 290 L55 245 L80 200 L108 215 L120 260 L100 290 Z"/>
  <path d="M55 245 L120 260"/>
  <path d="M80 200 L108 215"/>
  <path d="M80 200 L100 290"/>
  <path d="M108 215 L70 290"/>

  <!-- RECHTER mittelhoher Kristall -->
  <path d="M260 290 L248 200 L268 140 L290 145 L300 205 L285 290 Z"/>
  <path d="M248 200 L300 205"/>
  <path d="M268 140 L285 290"/>
  <path d="M290 145 L260 290"/>
  <path d="M268 140 L290 145"/>
  <path d="M278 175 L275 290" stroke-width="1.5" opacity="0.7"/>

  <!-- RECHTS-AUSSEN flacher Kristall -->
  <path d="M310 290 L298 230 L320 175 L348 195 L355 250 L340 290 Z"/>
  <path d="M298 230 L355 250"/>
  <path d="M320 175 L348 195"/>
  <path d="M320 175 L340 290"/>
  <path d="M348 195 L310 290"/>

  <!-- KLEINER Frontkristall (Vordergrund mittig) -->
  <path d="M180 290 L170 250 L185 220 L205 220 L218 250 L210 290 Z" stroke-width="2.5"/>
  <path d="M170 250 L218 250"/>
  <path d="M185 220 L205 220" stroke-width="2"/>

  <!-- Bruchstücke unten / Rocky base details -->
  <path d="M85 285 L92 270 L105 275 L100 285" stroke-width="2" opacity="0.85"/>
  <path d="M155 285 L162 270 L173 275" stroke-width="2" opacity="0.85"/>
  <path d="M225 285 L232 270 L245 273" stroke-width="2" opacity="0.85"/>
  <path d="M295 285 L302 273 L312 278" stroke-width="2" opacity="0.85"/>
</svg>
